<?xml version="1.0" standalone="no"?>
<!DOCTYPE svg PUBLIC "-//W3C//DTD SVG 20010904//EN"
 "http://www.w3.org/TR/2001/REC-SVG-20010904/DTD/svg10.dtd">
<svg version="1.0" xmlns="http://www.w3.org/2000/svg"
 width="1024.000000pt" height="1024.000000pt" viewBox="0 0 1024.000000 1024.000000"
 preserveAspectRatio="xMidYMid meet">
<metadata>
Created by potrace 1.14, written by Peter Selinger 2001-2017
</metadata>
<g transform="translate(0.000000,1024.000000) scale(0.100000,-0.100000)"
fill="#000000" stroke="none">
<path d="M2576 8113 c-4 -5 -29 -9 -54 -10 -26 -1 -49 -2 -52 -4 -10 -4 -25
-7 -51 -8 -24 -1 -27 -5 -26 -36 1 -19 4 -35 7 -35 3 0 6 -17 7 -38 0 -20 4
-55 8 -77 4 -22 8 -52 9 -67 0 -16 4 -28 7 -28 3 0 5 -10 4 -22 -1 -13 3 -29
9 -37 9 -12 8 -13 -3 -6 -11 6 -12 5 -5 -6 9 -15 12 -27 15 -74 2 -16 7 -35
11 -42 5 -6 4 -14 -3 -18 -8 -5 -8 -10 0 -14 5 -4 12 -30 13 -59 2 -29 5 -52
9 -52 5 0 10 -49 12 -107 1 -13 4 -23 7 -23 6 0 9 -28 11 -93 0 -11 5 -15 12
-10 7 4 6 0 -2 -10 -7 -9 -9 -17 -4 -17 5 0 9 -10 8 -22 -1 -13 2 -29 8 -35 6
-9 6 -13 -3 -13 -10 0 -10 -3 0 -15 6 -8 9 -19 5 -25 -3 -5 -3 -10 2 -10 4 0
8 -15 9 -32 1 -46 10 -93 19 -108 6 -9 4 -11 -6 -5 -12 7 -12 6 -1 -7 10 -13
10 -17 0 -21 -10 -4 -10 -6 0 -6 6 -1 12 -14 12 -30 0 -17 5 -33 10 -36 6 -3
10 -12 10 -18 0 -7 -4 -6 -11 3 -9 13 -10 13 -6 0 2 -8 11 -13 18 -11 8 2 28
4 44 4 17 1 33 6 38 12 5 7 10 5 16 -4 6 -9 11 -10 15 -2 4 6 12 11 17 11 6 0
7 -5 3 -12 -5 -7 -3 -8 7 -2 21 13 102 13 118 0 11 -8 13 -8 8 0 -9 15 55 14
65 -1 4 -6 8 -1 9 10 3 52 9 99 13 111 3 7 0 15 -7 18 -9 3 -8 5 1 5 10 1 10
6 1 22 -6 12 -7 19 -1 15 8 -5 15 67 14 137 -1 11 4 15 11 11 9 -5 9 -4 0 6
-8 8 -9 20 -3 36 6 16 6 24 -1 24 -6 0 -7 6 -2 13 4 6 8 34 9 60 1 27 4 51 7
54 3 2 1 18 -3 34 -6 19 -5 27 1 23 6 -3 8 9 6 30 -2 20 -1 36 2 36 3 0 6 29
6 65 0 36 2 65 5 65 3 0 5 19 4 43 0 23 3 47 8 54 5 6 5 14 -1 17 -7 5 -7 15
-1 31 7 18 6 25 -3 25 -8 0 -8 3 -2 8 10 7 12 21 16 120 1 30 6 52 13 52 7 0
7 3 1 8 -9 6 -11 28 -5 42 1 3 3 28 4 56 l1 50 -208 1 c-114 1 -205 -2 -203
-6 3 -4 -1 -8 -9 -8 -8 0 -12 4 -9 9 6 10 -10 11 -20 1z"/>
<path d="M7236 8112 c-4 -4 -26 -8 -49 -8 -23 -1 -42 -3 -42 -4 0 -3 -39 -9
-90 -14 -27 -3 -50 -5 -50 -6 0 -2 -15 -5 -65 -14 -19 -4 -42 -9 -50 -11 -8
-2 -21 -4 -28 -4 -8 -1 -10 -6 -6 -13 6 -10 5 -10 -8 -1 -8 7 -18 10 -22 6 -7
-8 -20 -11 -89 -22 -5 0 -6 -4 -4 -8 3 -5 -9 -9 -26 -9 -45 -2 -78 -15 -70
-27 3 -6 1 -7 -6 -3 -12 8 -94 -19 -120 -38 -12 -9 -13 -8 -7 4 6 12 4 11 -6
-1 -7 -9 -19 -14 -25 -12 -7 3 -13 0 -13 -7 0 -6 -4 -8 -10 -5 -5 3 -10 2 -10
-2 0 -5 -10 -9 -22 -10 -11 -1 -24 -7 -28 -13 -4 -7 -10 -11 -14 -10 -14 4
-66 -23 -60 -31 3 -5 -1 -6 -9 -3 -8 3 -21 -1 -28 -9 -8 -7 -20 -12 -27 -9 -6
2 -12 -1 -12 -8 0 -6 -4 -8 -10 -5 -5 3 -10 1 -10 -5 0 -6 -4 -8 -10 -5 -5 3
-10 1 -10 -5 0 -7 -7 -10 -15 -6 -8 3 -14 0 -12 -7 1 -7 -4 -11 -10 -10 -7 2
-13 -2 -13 -8 0 -5 -4 -7 -10 -4 -5 3 -10 1 -10 -5 0 -6 -4 -8 -10 -5 -5 3
-10 2 -10 -2 0 -11 -60 -47 -60 -36 0 4 -5 0 -11 -9 -5 -10 -17 -18 -24 -18
-8 0 -15 -4 -15 -9 0 -5 -11 -12 -25 -15 -14 -4 -23 -11 -20 -16 3 -5 -5 -12
-17 -16 -12 -3 -30 -15 -41 -25 -11 -10 -24 -16 -29 -13 -5 3 -7 0 -6 -6 2 -7
-12 -20 -29 -29 -18 -9 -33 -22 -33 -29 0 -7 -4 -10 -10 -7 -5 3 -10 1 -10 -4
0 -6 -6 -10 -12 -8 -7 1 -12 -4 -11 -10 2 -7 -1 -13 -5 -13 -20 0 -141 -113
-135 -125 4 -5 3 -7 -1 -3 -11 9 -46 -23 -39 -35 3 -6 1 -7 -5 -3 -6 3 -17 -3
-25 -14 -7 -11 -16 -17 -19 -14 -4 3 -9 -3 -12 -14 -4 -10 -17 -25 -31 -32
-13 -7 -23 -16 -22 -21 1 -4 -19 -30 -45 -57 -27 -28 -48 -53 -48 -57 0 -4
-10 -16 -22 -26 -11 -11 -18 -19 -15 -19 3 0 -4 -11 -16 -24 -36 -39 -47 -55
-47 -65 0 -5 -10 -18 -22 -28 -13 -10 -24 -24 -26 -32 -1 -7 -9 -20 -17 -28
-8 -8 -15 -18 -15 -22 0 -4 -9 -18 -20 -31 -11 -12 -17 -27 -14 -31 3 -5 1 -9
-5 -9 -5 0 -16 -12 -24 -27 -34 -67 -53 -98 -61 -104 -5 -4 -5 -12 -2 -18 4
-7 2 -10 -5 -9 -7 2 -13 -2 -14 -7 0 -17 -49 -115 -57 -115 -4 0 -5 -9 -3 -20
2 -11 0 -18 -6 -15 -5 4 -9 -3 -9 -15 0 -13 -4 -19 -12 -14 -6 4 -8 3 -5 -3 4
-6 -4 -36 -18 -67 -14 -31 -22 -56 -18 -56 4 0 2 -5 -5 -12 -7 -7 -12 -20 -12
-30 0 -10 -5 -18 -10 -18 -6 0 -9 -3 -8 -7 1 -5 -6 -34 -16 -65 -9 -32 -17
-61 -18 -65 0 -5 -4 -15 -9 -24 -4 -9 -11 -29 -14 -45 -8 -38 -13 -58 -15 -61
-2 -2 -4 -7 -5 -13 -1 -5 -3 -11 -4 -12 -1 -2 -4 -16 -7 -33 -7 -51 -9 -60
-17 -72 -5 -8 -3 -13 5 -13 10 0 10 -2 1 -8 -7 -5 -14 -20 -15 -35 -1 -15 -6
-27 -11 -27 -5 0 -4 -6 2 -14 7 -8 8 -17 3 -20 -5 -3 -8 -25 -8 -49 1 -34 -2
-43 -13 -39 -10 4 -11 1 -3 -15 6 -11 9 -23 5 -26 -3 -4 -7 -32 -9 -64 -2 -31
-6 -63 -8 -70 -3 -7 0 -13 7 -13 8 0 9 -3 1 -8 -6 -4 -10 -34 -10 -69 1 -37
-3 -63 -9 -63 -7 0 -7 -3 0 -8 14 -10 14 -82 1 -82 -6 0 -5 -4 2 -9 8 -4 14
-12 14 -16 0 -4 -6 -12 -14 -16 -8 -6 -9 -12 -3 -16 14 -11 17 -33 4 -33 -8 0
-8 -4 0 -13 8 -10 7 -17 -1 -25 -7 -7 -8 -12 -2 -12 5 0 10 -9 10 -20 0 -11
-4 -20 -9 -20 -5 0 -5 -6 0 -12 13 -17 12 -48 -1 -48 -7 0 -7 -3 -1 -8 13 -9
18 -32 7 -32 -9 0 -7 -58 2 -67 3 -4 1 -12 -5 -20 -9 -9 -8 -13 0 -13 8 0 9
-6 2 -18 -6 -11 -6 -24 0 -35 7 -12 6 -17 -3 -17 -10 0 -10 -2 0 -9 8 -4 14
-12 14 -16 0 -4 -6 -12 -14 -16 -7 -5 -8 -9 -2 -9 11 0 12 -28 2 -46 -4 -5 -3
-16 2 -24 4 -7 5 -23 1 -34 -8 -25 -7 -69 3 -84 3 -6 2 -13 -4 -17 -6 -4 -7
-11 -4 -17 11 -18 11 -78 0 -78 -6 0 -5 -4 2 -9 8 -4 14 -12 14 -16 0 -4 -6
-12 -14 -16 -8 -6 -9 -12 -3 -16 14 -11 17 -33 4 -33 -8 0 -8 -4 0 -13 8 -10
7 -17 -1 -25 -9 -9 -9 -12 0 -12 9 0 10 -5 3 -19 -6 -10 -8 -21 -4 -24 11 -12
11 -57 0 -57 -8 0 -7 -3 1 -9 17 -11 17 -21 0 -32 -7 -5 -8 -9 -2 -9 6 0 11
-7 11 -15 0 -8 -5 -15 -11 -15 -6 0 -5 -4 2 -9 8 -4 14 -12 14 -16 0 -4 -6
-12 -14 -16 -8 -6 -9 -12 -3 -16 14 -11 17 -33 4 -33 -8 0 -8 -4 0 -13 8 -10
7 -17 -1 -25 -7 -7 -8 -12 -2 -12 5 0 10 -9 10 -20 0 -11 -4 -20 -9 -20 -5 0
-5 -6 0 -13 13 -16 12 -47 -1 -47 -6 0 -5 -4 2 -9 17 -11 17 -21 0 -32 -11 -8
-11 -10 0 -18 8 -4 14 -12 14 -16 0 -4 -6 -12 -14 -16 -7 -5 -8 -9 -2 -9 11 0
12 -28 2 -46 -4 -5 -3 -16 2 -24 4 -7 5 -23 1 -34 -8 -25 -7 -69 3 -84 3 -6 2
-13 -4 -17 -6 -4 -7 -12 -1 -22 4 -9 5 -30 1 -48 -4 -18 -4 -39 1 -46 4 -7 3
-19 -3 -26 -7 -9 -7 -13 1 -13 8 0 9 -5 2 -19 -6 -10 -8 -21 -4 -24 11 -12 11
-57 0 -57 -8 0 -7 -3 1 -9 17 -11 17 -21 0 -32 -8 -6 -9 -12 -3 -16 14 -11 17
-33 4 -33 -8 0 -8 -4 0 -13 8 -10 7 -17 -1 -25 -7 -7 -8 -12 -2 -12 5 0 10 -9
10 -20 0 -11 -4 -20 -9 -20 -5 0 -5 -6 0 -12 13 -17 12 -48 -1 -48 -7 0 -7 -3
-1 -8 13 -9 18 -32 7 -32 -9 0 -7 -58 2 -67 3 -4 1 -12 -5 -20 -9 -9 -8 -13 0
-13 8 0 9 -6 2 -18 -6 -11 -6 -24 0 -35 7 -12 6 -17 -3 -17 -10 0 -10 -2 0 -9
17 -11 17 -21 0 -32 -7 -5 -8 -9 -2 -9 11 0 12 -28 2 -46 -4 -5 -3 -16 2 -24
4 -7 5 -23 1 -34 -8 -25 -7 -69 3 -84 3 -6 2 -13 -4 -17 -6 -4 -7 -11 -4 -17
11 -18 11 -78 0 -78 -7 0 -7 -3 -1 -8 15 -11 17 -32 2 -32 -9 0 -9 -2 0 -8 9
-5 1211 -9 1245 -3 11 1 5 24 -7 33 -7 5 -6 8 0 8 6 0 11 16 12 35 0 23 -3 33
-11 28 -7 -4 -6 -1 1 8 10 12 10 18 0 29 -6 7 -7 10 -1 7 7 -4 10 22 10 78 -1
47 -5 81 -10 78 -5 -4 -5 0 0 8 12 19 12 112 -1 121 -7 5 -6 8 2 8 12 0 10 70
-3 92 -5 8 -1 8 11 -2 17 -14 18 -14 8 5 -6 11 -9 28 -8 38 2 9 -2 17 -8 17
-7 0 -5 5 3 10 8 5 11 10 6 10 -5 0 -3 6 3 14 9 11 9 16 0 22 -8 5 -9 3 -4 -6
5 -9 4 -11 -4 -6 -6 4 -8 13 -4 19 9 15 12 78 4 92 -9 17 -10 35 -1 30 13 -8
7 48 -5 57 -7 5 -6 8 0 8 6 0 11 16 12 35 0 23 -3 33 -11 28 -7 -4 -6 -1 1 8
10 12 10 18 0 29 -7 7 -7 10 -1 7 8 -5 11 12 9 56 -2 34 -4 62 -5 62 -1 0 -3
8 -5 18 -2 9 1 15 5 12 13 -8 7 48 -5 57 -7 5 -6 8 0 8 6 0 11 16 12 35 0 23
-3 33 -11 28 -7 -4 -6 -1 1 8 10 12 10 18 0 29 -6 7 -7 10 -1 7 7 -4 10 22 10
78 -1 53 -4 81 -11 77 -6 -3 -5 0 1 9 9 11 13 114 5 114 -2 0 -4 8 -6 18 -2 9
1 15 5 12 13 -8 7 48 -5 57 -7 5 -6 8 0 8 6 0 11 16 12 35 0 23 -3 33 -11 28
-7 -4 -6 -1 1 8 10 12 10 18 0 29 -6 7 -7 10 -1 7 7 -4 10 22 10 78 -1 47 -5
81 -10 78 -5 -4 -5 0 0 8 13 20 13 159 -1 151 -6 -4 -6 -1 1 9 9 11 13 114 5
114 -2 0 -4 8 -6 18 -2 9 1 15 5 12 13 -8 7 48 -5 57 -7 5 -6 8 0 8 6 0 11 16
12 35 0 23 -3 33 -11 28 -7 -4 -6 -1 1 8 10 12 10 18 0 29 -6 7 -7 10 -1 7 7
-4 10 22 10 78 -1 47 -5 81 -10 78 -5 -4 -5 0 0 8 12 19 13 159 0 152 -5 -4
-6 -1 0 8 13 21 13 109 0 109 -7 0 -7 3 -1 8 16 11 19 46 3 36 -10 -6 -11 -5
-1 7 10 12 10 18 0 29 -9 10 -9 11 1 6 9 -5 12 7 12 48 0 38 4 56 13 56 9 0 9
2 0 8 -8 5 -9 13 -3 22 6 9 4 20 -3 29 -9 12 -9 13 1 7 8 -5 12 1 12 18 0 14
-1 28 -2 29 -2 2 2 10 8 18 5 8 10 26 9 42 0 15 3 27 8 27 5 0 7 7 3 15 -3 8
-2 15 2 15 4 0 9 12 10 26 1 15 7 33 13 40 6 7 8 18 4 24 -3 5 -1 10 4 10 6 0
11 9 11 20 0 11 4 20 10 20 5 0 7 7 4 15 -4 8 -2 15 4 15 6 0 9 11 8 25 -2 13
0 23 3 20 10 -6 28 28 25 47 -1 10 3 16 8 15 6 -1 15 13 20 31 5 17 13 32 19
32 6 0 7 5 4 10 -3 6 -1 10 5 10 7 0 10 7 6 15 -3 9 0 15 10 15 8 0 13 4 10 8
-3 5 6 20 20 35 14 15 22 27 19 27 -5 0 86 121 112 148 7 7 13 18 13 23 0 5 3
8 8 7 4 -2 7 -1 7 2 1 7 69 72 94 90 12 8 21 21 21 29 0 8 3 11 6 8 4 -3 31
14 60 40 30 25 54 43 54 40 0 -3 12 5 26 18 15 14 30 22 34 20 4 -3 11 2 14
11 4 9 9 14 13 11 3 -4 11 0 17 9 6 8 21 16 33 17 12 0 19 5 17 9 -3 4 6 10
20 14 14 3 30 12 37 20 6 8 20 14 31 14 10 0 16 4 13 10 -3 5 0 7 8 4 8 -3 18
0 22 5 3 6 10 9 15 6 5 -3 20 1 33 10 13 8 27 12 30 8 4 -3 7 -1 7 4 0 10 69
29 97 26 7 0 10 3 7 8 -3 5 3 9 13 10 10 0 27 3 38 5 41 10 71 15 93 17 12 0
22 4 22 7 0 3 15 5 33 5 17 -1 38 3 45 8 8 6 12 6 12 -2 0 -9 5 -9 21 0 17 9
23 8 30 -2 5 -8 9 -9 9 -3 0 13 59 13 79 0 10 -6 12 -6 7 2 -10 16 16 15 33 0
11 -10 13 -10 7 0 -9 14 -1 15 41 3 21 -6 35 -6 39 0 3 6 11 6 17 1 7 -4 23
-8 37 -7 14 1 39 -3 55 -8 61 -17 77 -18 69 -5 -4 7 2 4 14 -6 12 -11 22 -16
22 -12 0 4 9 2 20 -4 15 -8 20 -8 20 2 0 10 2 10 8 1 4 -6 21 -15 37 -19 39
-11 42 -11 61 -13 8 0 13 -5 10 -9 -3 -5 0 -9 7 -10 38 -3 88 -22 121 -45 16
-12 27 -16 23 -10 -5 8 0 8 18 0 14 -7 25 -19 25 -27 0 -13 1 -13 10 0 6 10
10 11 10 2 0 -6 3 -11 8 -10 10 2 72 -36 72 -45 0 -5 4 -6 9 -3 4 3 19 -3 31
-14 13 -11 26 -20 30 -20 4 0 16 -8 28 -17 52 -45 63 -53 68 -53 3 0 16 -11
30 -25 14 -14 29 -25 34 -25 6 0 10 -7 10 -15 0 -8 6 -15 14 -15 8 0 18 -9 21
-20 3 -11 11 -20 17 -20 6 0 19 -10 30 -22 11 -13 32 -36 47 -53 15 -16 28
-33 29 -37 1 -4 14 -19 27 -34 14 -15 22 -31 18 -37 -3 -5 -1 -7 5 -3 6 3 16
-7 24 -24 7 -16 15 -30 18 -30 3 0 17 -21 30 -47 14 -26 31 -54 38 -61 7 -8
10 -18 7 -23 -4 -5 -1 -9 5 -9 6 0 8 -4 5 -10 -3 -5 -1 -10 5 -10 6 0 8 -4 5
-10 -3 -5 -1 -10 5 -10 6 0 8 -4 5 -10 -3 -5 -2 -10 4 -10 6 0 8 -7 5 -15 -4
-8 1 -17 9 -21 9 -3 14 -14 12 -25 -2 -10 0 -19 5 -19 5 0 7 -9 5 -20 -2 -11
0 -20 5 -20 7 0 20 -42 25 -80 0 -3 3 -10 7 -16 4 -6 9 -25 10 -43 1 -17 5
-31 9 -31 3 0 5 -14 3 -31 -2 -16 0 -28 4 -25 4 2 7 -29 7 -70 0 -41 3 -74 6
-74 10 0 5 -34 -6 -42 -6 -5 -5 -8 3 -8 7 0 11 -4 8 -8 -7 -12 38 -9 47 3 5 7
10 7 15 0 6 -9 21 -11 47 -5 25 5 51 4 67 -2 10 -5 18 -3 21 5 4 9 6 9 6 0 1
-7 6 -13 12 -13 5 0 7 6 3 13 -6 9 -4 9 8 -1 12 -9 18 -10 23 -2 5 8 11 8 21
-1 11 -9 14 -9 14 1 0 10 3 10 14 1 11 -9 15 -9 19 1 4 10 6 10 6 1 1 -7 6
-13 12 -13 5 0 7 6 3 13 -6 9 -4 9 8 -1 11 -9 18 -10 23 -2 4 7 13 7 27 -1 12
-7 18 -7 14 -1 -7 12 13 10 33 -2 8 -5 16 -4 21 4 5 9 9 9 14 1 5 -7 13 -8 24
-2 11 6 24 6 35 0 12 -7 17 -6 17 3 0 9 3 9 10 -2 9 -13 11 -13 20 0 5 8 10
10 10 4 0 -13 42 -13 52 1 5 6 8 6 8 -2 0 -7 9 -10 23 -7 42 10 78 10 83 2 3
-5 12 -4 19 2 10 8 15 8 20 0 5 -8 10 -8 20 0 10 8 15 8 20 0 5 -8 10 -8 20 0
10 8 15 8 20 0 5 -8 10 -8 20 0 8 7 15 7 19 1 7 -10 25 -9 44 3 7 4 19 3 26
-3 9 -7 16 -7 24 1 8 8 12 8 12 1 0 -13 92 -12 102 2 5 6 8 6 8 -2 0 -12 17
-12 36 0 6 3 14 3 18 0 8 -9 46 -12 47 -4 4 26 3 171 -1 171 -3 0 -6 21 -7 48
-5 112 -7 132 -16 132 -5 0 -4 7 3 15 10 12 10 15 0 15 -7 0 -10 8 -7 20 3 11
1 23 -4 26 -5 3 -9 10 -9 15 0 6 5 7 11 3 6 -3 4 7 -4 22 -8 16 -13 37 -12 47
2 9 -1 17 -6 17 -4 0 -6 7 -2 16 3 9 0 20 -8 25 -12 7 -12 9 1 9 10 0 11 3 3
8 -6 4 -14 23 -16 42 -3 19 -6 35 -7 35 -2 0 -11 35 -14 57 -1 9 -7 22 -12 30
-6 7 -10 25 -9 40 0 15 -3 24 -7 22 -4 -3 -9 1 -9 8 -2 23 -5 32 -17 61 -7 16
-10 33 -6 38 3 5 0 9 -5 9 -6 0 -11 9 -11 19 0 11 -4 22 -9 26 -5 3 -12 19
-16 35 -4 17 -11 28 -15 25 -5 -3 -7 4 -5 15 2 11 0 20 -6 20 -5 0 -9 9 -9 20
0 11 -4 20 -10 20 -5 0 -10 7 -10 15 0 14 -18 53 -30 65 -3 3 -6 11 -8 19 -2
8 -12 27 -23 43 -11 15 -21 37 -22 47 0 11 -4 18 -8 15 -7 -4 -17 16 -20 41
-1 6 -10 16 -21 23 -10 7 -16 18 -13 23 4 5 1 9 -4 9 -6 0 -11 7 -11 15 0 9
-7 18 -15 21 -8 4 -15 12 -15 20 0 8 -9 23 -20 34 -11 11 -17 20 -12 20 4 1
-3 9 -15 19 -12 10 -19 21 -16 25 4 3 0 6 -7 6 -7 0 -11 3 -7 6 3 3 -4 16 -16
29 -12 12 -29 32 -37 45 -19 28 -68 87 -97 116 -13 13 -23 28 -23 34 0 5 -7
10 -17 10 -9 0 -14 3 -11 6 4 3 -17 29 -45 57 -29 29 -51 56 -49 60 1 5 -2 6
-7 2 -6 -3 -16 3 -23 15 -7 11 -19 20 -26 20 -7 0 -10 5 -7 10 3 6 2 10 -3 10
-15 0 -52 36 -52 50 0 7 -3 11 -6 7 -6 -6 -17 2 -59 41 -13 12 -27 22 -30 22
-5 0 -49 37 -80 67 -7 7 -15 10 -17 7 -3 -2 -16 6 -30 19 -14 13 -33 27 -42
30 -9 4 -16 11 -16 17 0 6 -4 8 -10 5 -5 -3 -10 -1 -10 4 0 6 -7 11 -15 11 -8
0 -15 5 -15 10 0 6 -6 10 -13 10 -7 0 -23 9 -34 19 -12 11 -23 18 -26 15 -2
-2 -10 2 -17 11 -7 8 -19 15 -26 15 -8 0 -14 5 -14 11 0 5 -5 7 -10 4 -6 -3
-13 0 -16 9 -3 8 -12 12 -20 9 -8 -3 -14 0 -14 7 0 6 -4 8 -10 5 -5 -3 -10 -1
-10 5 0 6 -4 9 -9 6 -5 -3 -11 1 -15 9 -3 9 -12 12 -22 8 -13 -5 -15 -3 -9 7
5 9 4 11 -4 6 -6 -4 -18 0 -27 8 -8 9 -24 16 -35 16 -11 0 -17 4 -14 10 3 6
-1 7 -9 4 -9 -3 -16 -2 -16 3 0 5 -20 15 -45 22 -25 7 -45 17 -45 23 0 5 -4 7
-9 4 -4 -3 -30 5 -57 18 -38 19 -52 21 -63 12 -12 -8 -13 -8 -7 2 6 11 -5 17
-26 13 -5 0 -8 4 -8 9 0 6 -13 10 -30 10 -16 0 -30 5 -30 11 0 6 -6 9 -12 6
-7 -2 -30 2 -51 11 -21 8 -41 12 -44 8 -3 -3 -12 -1 -20 5 -7 6 -13 9 -13 5 0
-4 -12 0 -27 7 -16 8 -34 12 -40 10 -7 -3 -13 1 -13 7 0 10 -4 10 -15 0 -10
-9 -15 -9 -15 -1 0 6 -13 11 -29 11 -17 0 -33 5 -36 10 -5 8 -11 7 -21 -1 -8
-6 -14 -7 -14 -2 0 9 -17 12 -102 16 -27 1 -48 6 -48 10 0 5 -16 6 -36 3 -19
-4 -33 -2 -30 2 6 11 -45 9 -63 -3 -9 -5 -12 -4 -8 2 5 7 -48 11 -158 11 -107
0 -163 -4 -159 -10 4 -6 -4 -4 -17 2 -18 10 -24 10 -27 1 -3 -8 -8 -9 -16 -2
-7 6 -16 7 -20 3z"/>
<path d="M3277 8075 c-12 -8 -21 -31 -24 -62 -8 -76 -9 -82 -16 -89 -4 -4 -1
-14 6 -22 9 -13 9 -14 0 -8 -12 7 -16 -8 -16 -66 0 -10 -3 -18 -7 -18 -4 0 -7
-12 -7 -27 1 -31 -9 -100 -21 -153 -4 -19 -7 -42 -7 -50 1 -8 -4 -21 -9 -29
-9 -12 -8 -13 3 -6 11 6 12 5 5 -6 -10 -17 -11 -20 -13 -60 0 -16 -5 -28 -9
-25 -5 3 -9 -1 -9 -9 0 -8 5 -15 10 -15 6 0 6 -5 0 -12 -6 -7 -9 -21 -8 -30 2
-10 0 -18 -4 -18 -4 0 -8 -15 -9 -32 0 -18 -3 -46 -7 -63 -3 -16 -6 -42 -6
-58 0 -18 -4 -25 -12 -20 -7 4 -6 0 2 -10 8 -10 9 -17 3 -17 -6 0 -11 -8 -11
-17 1 -10 -2 -36 -6 -58 -10 -62 -16 -107 -18 -137 -1 -16 -5 -28 -9 -28 -3 0
-5 -11 -3 -25 1 -14 -1 -28 -5 -30 -8 -5 -5 -53 4 -63 3 -3 6 0 6 7 0 7 4 9
10 6 13 -8 49 -16 83 -19 16 -1 32 -7 35 -12 4 -5 12 -9 17 -10 21 -1 71 -17
84 -28 12 -9 13 -8 6 4 -6 11 -3 10 12 -2 11 -10 26 -18 34 -18 8 0 20 -5 27
-12 9 -9 12 -9 12 0 0 21 3 27 19 40 9 8 11 11 4 8 -6 -4 -1 15 12 41 13 25
22 50 19 55 -3 4 0 8 5 8 6 0 11 9 11 20 0 11 5 20 11 20 5 0 7 5 4 10 -3 6
-1 10 5 10 6 0 8 4 5 10 -3 5 1 20 10 33 8 13 12 27 8 30 -3 4 -1 7 5 7 6 0 9
9 7 20 -2 11 0 18 6 15 8 -6 13 8 10 28 0 4 3 7 8 7 6 0 8 9 6 20 -2 11 0 20
5 20 5 0 12 11 16 25 3 14 10 25 15 25 4 0 6 9 4 20 -2 11 1 20 6 20 6 0 7 5
4 10 -3 6 -1 10 4 10 6 0 11 12 11 26 0 20 4 25 16 20 9 -3 12 -2 9 4 -9 15 5
71 16 64 5 -3 9 4 9 16 0 11 9 39 19 61 11 21 14 36 8 33 -7 -3 -5 0 3 8 8 7
15 18 15 23 0 6 11 33 25 60 13 28 25 59 27 69 2 11 8 25 14 32 6 7 7 19 3 25
-4 7 -3 9 4 5 7 -4 13 7 18 29 3 19 10 35 14 35 4 0 10 14 14 30 8 43 8 44 23
58 7 8 11 17 8 22 -3 5 1 11 7 13 10 4 10 7 0 15 -8 5 -14 13 -15 18 -1 5 -6
8 -11 6 -5 -2 -12 1 -15 6 -3 6 -17 12 -31 13 -14 2 -31 10 -38 17 -8 7 -18
10 -23 7 -5 -4 -9 -1 -9 6 0 8 -5 7 -17 -2 -9 -8 -14 -9 -10 -3 7 13 -19 27
-33 19 -5 -3 -11 -1 -15 5 -3 5 -15 10 -26 10 -10 0 -19 5 -19 12 0 6 -3 9 -6
5 -4 -3 -22 0 -41 8 -24 10 -32 11 -27 2 5 -9 3 -9 -7 1 -7 6 -23 12 -34 12
-12 0 -25 3 -29 7 -6 7 -32 12 -73 15 -13 1 -23 6 -23 10 0 4 -18 8 -41 8 -24
0 -38 4 -34 10 8 13 4 12 -18 -5z"/>
<path d="M2130 8031 c0 -7 -6 -11 -12 -8 -7 2 -30 -2 -50 -9 -21 -7 -38 -10
-38 -6 0 4 -4 2 -8 -5 -4 -6 -21 -14 -37 -17 -17 -2 -32 -5 -35 -6 -3 -1 -8
-2 -12 -1 -5 0 -8 -4 -8 -10 0 -6 -7 -9 -15 -5 -8 3 -15 0 -15 -6 0 -6 -3 -8
-7 -5 -3 4 -17 0 -30 -8 -13 -9 -28 -13 -33 -10 -6 3 -10 1 -10 -5 0 -6 -4 -8
-10 -5 -5 3 -10 1 -10 -5 0 -6 -4 -9 -9 -5 -5 3 -17 -2 -25 -11 -12 -11 -16
-12 -16 -2 -1 8 -6 6 -15 -6 -8 -11 -15 -16 -15 -12 0 5 -6 3 -13 -3 -8 -6
-17 -8 -20 -4 -4 3 -9 -2 -13 -11 -3 -9 -10 -13 -15 -11 -5 3 -20 -2 -34 -11
-14 -9 -25 -14 -25 -10 0 3 -10 -4 -21 -15 -18 -18 -20 -25 -10 -41 6 -10 9
-23 6 -28 -4 -6 1 -13 9 -16 9 -3 13 -10 10 -15 -3 -5 0 -9 6 -9 6 0 8 -4 5
-10 -3 -5 -1 -10 5 -10 6 0 8 -4 5 -10 -3 -5 -1 -10 4 -10 6 0 11 -7 11 -16 0
-8 3 -13 8 -11 4 3 8 -6 9 -20 0 -14 5 -28 10 -32 13 -10 33 -49 33 -66 0 -8
3 -15 8 -15 4 0 13 -9 20 -21 11 -17 11 -20 0 -13 -10 6 -11 5 -1 -8 23 -27
81 -146 76 -152 -4 -3 -1 -6 6 -6 7 0 10 -4 7 -9 -4 -5 -3 -11 2 -13 11 -4
173 -328 164 -328 -4 0 -2 -4 4 -8 14 -9 57 -92 47 -92 -4 0 2 -7 13 -16 10
-8 12 -13 4 -9 -13 6 -13 5 0 -7 8 -7 28 -41 45 -76 27 -58 55 -97 55 -76 0 5
9 15 21 22 17 11 20 11 13 0 -4 -7 5 -3 20 10 16 12 32 19 37 16 5 -3 9 0 9 6
0 6 4 9 9 5 5 -3 12 -1 16 5 4 6 11 8 16 5 5 -4 9 -1 9 4 0 6 3 10 8 10 15 -3
72 14 68 20 -2 3 10 7 26 8 40 3 76 33 54 45 -8 4 -13 19 -11 33 1 14 -2 25
-7 25 -5 0 -6 5 -3 10 4 6 3 16 -2 23 -5 7 -10 26 -12 42 -2 17 -8 36 -14 44
-10 12 -9 13 3 6 12 -7 13 -6 3 6 -6 8 -13 27 -15 41 -2 15 -7 30 -10 34 -4 3
-4 12 -1 20 3 8 1 14 -4 14 -5 0 -9 12 -9 28 1 15 -3 26 -9 25 -6 -1 -10 19
-9 43 0 25 -3 47 -8 50 -4 3 -8 15 -8 28 0 12 -3 26 -7 29 -3 4 -8 19 -9 33
-2 15 -6 34 -10 43 -4 9 -8 28 -9 42 -1 15 -6 35 -10 45 -9 21 -11 28 -18 64
-3 14 -8 36 -11 50 -3 14 -8 36 -10 50 -2 14 -9 38 -15 54 -7 16 -9 31 -6 34
2 3 0 11 -6 18 -6 8 -9 20 -6 28 3 8 3 17 -1 21 -4 4 -7 10 -8 13 -2 15 -17
68 -22 77 -6 9 -12 51 -13 87 0 19 -39 58 -39 39z"/>
<path d="M4106 7768 c-18 -37 -28 -68 -22 -68 6 0 5 -4 -3 -9 -8 -5 -16 -17
-17 -27 -2 -9 -9 -21 -16 -25 -7 -5 -10 -9 -5 -9 4 0 1 -12 -6 -27 -8 -16 -12
-34 -9 -42 2 -8 0 -11 -6 -7 -5 3 -16 -13 -23 -39 -7 -25 -18 -45 -23 -45 -5
0 -6 -3 -3 -6 3 -4 1 -16 -5 -28 -7 -11 -13 -23 -13 -26 -3 -21 -31 -80 -37
-80 -4 0 -7 -4 -6 -8 4 -12 -25 -82 -33 -82 -4 0 -6 -12 -3 -26 3 -16 1 -23
-6 -19 -5 3 -10 1 -10 -4 0 -6 0 -13 0 -16 0 -3 -9 -21 -20 -42 -10 -20 -17
-40 -14 -45 3 -4 -2 -11 -10 -14 -9 -3 -14 -9 -11 -13 2 -4 -3 -20 -10 -35 -8
-16 -12 -33 -8 -39 3 -6 1 -7 -5 -3 -8 4 -12 0 -12 -11 0 -10 -6 -27 -14 -38
-7 -11 -17 -35 -21 -53 -4 -19 -11 -30 -17 -26 -7 4 -8 2 -4 -4 4 -6 -1 -23
-10 -37 -9 -14 -13 -25 -9 -25 4 0 1 -7 -6 -17 -8 -9 -13 -18 -12 -19 4 -9
-10 -44 -18 -44 -4 0 -6 -9 -4 -20 2 -11 0 -20 -6 -20 -5 0 -9 -7 -9 -16 0 -8
-5 -12 -10 -9 -7 4 -9 -3 -6 -19 3 -19 0 -26 -10 -26 -8 0 -12 -4 -9 -10 3 -5
-3 -28 -14 -51 -14 -29 -18 -47 -11 -58 8 -13 9 -14 10 -1 0 12 2 12 9 2 5 -8
20 -15 35 -15 14 -1 26 -6 26 -11 0 -4 7 -6 15 -2 8 3 21 -2 30 -10 11 -12 15
-12 15 -2 0 8 3 9 8 3 7 -11 39 -18 85 -19 15 -1 27 -3 27 -6 0 -3 20 -5 44
-5 25 1 43 -2 41 -6 -3 -3 18 -6 45 -5 27 1 46 -2 44 -6 -3 -4 5 -8 18 -8 71
-1 98 -4 98 -9 0 -4 15 -7 33 -8 62 -1 97 -7 97 -16 0 -5 7 -4 15 3 8 7 15 8
15 3 0 -5 10 -9 23 -10 12 0 31 -4 41 -8 15 -7 17 -5 11 6 -8 12 -6 12 8 1 9
-8 21 -11 26 -8 5 4 12 2 15 -2 6 -11 36 -9 55 3 10 6 12 4 6 -5 -5 -8 -4 -11
2 -7 11 7 25 57 28 99 0 15 4 31 8 34 14 14 7 44 -8 38 -8 -4 -15 -1 -15 6 0
7 -7 10 -15 6 -8 -3 -15 -1 -15 4 0 6 -3 9 -7 8 -5 -1 -19 4 -32 11 -19 11
-22 11 -15 0 4 -7 -7 -3 -24 10 -18 12 -41 23 -52 24 -11 1 -20 5 -20 10 0 4
-4 5 -10 2 -5 -3 -10 -2 -10 4 0 5 -9 8 -20 6 -11 -2 -19 -1 -16 3 2 4 -7 12
-20 19 -13 6 -22 7 -18 2 3 -5 -16 2 -43 15 -26 14 -51 22 -55 20 -4 -3 -8 0
-8 7 0 7 -3 9 -6 6 -4 -3 -16 -1 -28 5 -11 7 -24 11 -28 10 -8 -2 -4 15 10 51
7 16 12 33 12 38 0 5 5 9 11 9 5 0 7 5 4 10 -3 6 -1 10 5 10 6 0 9 4 5 10 -6
9 13 50 28 61 4 3 7 10 6 15 -2 5 10 36 25 68 14 33 29 70 32 83 4 13 10 23
15 23 5 0 9 7 9 16 0 9 6 30 14 47 46 102 59 133 59 145 0 6 4 12 9 12 5 0 6
5 3 10 -3 6 -1 10 4 10 6 0 10 3 9 8 0 4 2 14 6 23 6 14 12 15 32 5 13 -6 24
-15 24 -19 0 -5 5 -5 10 -2 6 3 10 2 10 -3 0 -6 7 -13 16 -16 8 -3 12 -2 9 4
-3 5 8 2 24 -8 17 -9 31 -20 31 -24 0 -4 7 -4 17 -1 11 4 14 3 9 -5 -5 -8 1
-12 18 -12 14 0 26 -3 26 -7 0 -9 49 -33 67 -33 7 0 13 -4 13 -10 0 -5 6 -10
14 -10 8 0 40 -14 70 -31 31 -16 56 -27 56 -23 0 3 6 2 13 -4 10 -9 17 -6 30
8 9 11 14 20 11 20 -4 0 5 15 19 34 15 18 23 36 20 40 -4 3 -1 6 5 6 7 0 12
10 12 22 0 12 -3 18 -6 15 -4 -3 -20 8 -35 24 -16 17 -29 28 -29 25 0 -5 -35
22 -66 52 -8 7 -14 11 -14 8 0 -3 -8 2 -18 12 -11 9 -17 21 -14 26 3 5 1 6 -5
3 -5 -3 -21 5 -36 19 -14 13 -30 24 -34 24 -5 0 -15 9 -23 20 -8 11 -18 20
-23 20 -5 0 -14 6 -21 13 -7 6 -28 23 -46 37 -18 14 -39 30 -45 37 -7 7 -15 9
-19 6 -3 -4 -6 1 -6 10 0 8 -8 18 -17 21 -10 4 -32 19 -49 34 -18 15 -42 34
-54 42 -42 29 -60 47 -52 55 4 5 2 5 -5 1 -6 -3 -16 1 -21 10 -5 9 -13 16 -18
16 -13 1 -54 34 -49 40 3 3 -2 5 -11 5 -10 0 -28 -27 -48 -69z"/>
<path d="M1308 7661 c-30 -29 -48 -42 -48 -35 0 4 -9 -3 -20 -16 -11 -13 -20
-19 -20 -14 -1 5 -9 -1 -20 -14 -10 -13 -21 -22 -23 -20 -4 3 -63 -43 -106
-82 -15 -14 -43 -36 -62 -48 -19 -12 -30 -22 -26 -22 11 0 -72 -80 -83 -80 -6
0 -10 -4 -10 -10 0 -5 -10 -19 -22 -30 -22 -20 -22 -22 -5 -31 9 -6 15 -14 12
-19 -3 -5 4 -11 15 -15 11 -3 20 -11 20 -16 0 -6 5 -7 10 -4 6 4 9 2 8 -3 -4
-14 108 -123 117 -114 4 4 5 2 3 -4 -1 -6 48 -61 110 -123 61 -61 112 -116
112 -121 0 -6 4 -10 8 -10 9 0 37 -25 70 -64 13 -16 28 -24 35 -20 7 4 9 4 5
-1 -4 -4 15 -30 43 -56 27 -27 47 -49 44 -49 -4 0 8 -12 26 -27 48 -40 69 -62
69 -71 0 -5 11 -15 25 -22 13 -7 22 -17 19 -22 -5 -7 10 -12 29 -9 4 0 7 -8 7
-19 0 -11 5 -20 11 -20 5 0 7 -5 3 -12 -4 -7 -3 -8 4 -4 12 7 46 -22 54 -45 3
-10 18 -1 46 27 23 23 42 40 42 37 0 -2 12 8 26 22 14 14 36 33 50 41 13 9 21
21 17 27 -3 5 -1 7 4 4 6 -4 23 4 39 18 15 13 31 22 34 20 3 -2 11 5 18 16 10
16 10 20 -2 25 -9 3 -12 12 -9 21 4 11 2 14 -5 9 -7 -4 -12 -1 -12 8 0 9 -5
16 -12 16 -6 0 -8 3 -5 7 4 3 -4 20 -16 37 -26 34 -41 66 -38 79 1 5 -3 6 -8
2 -6 -3 -13 6 -17 20 -3 14 -9 25 -13 25 -3 0 -17 20 -30 45 -13 25 -28 45
-33 45 -5 0 -7 4 -3 9 3 6 -5 19 -17 30 -12 12 -18 21 -14 21 4 0 -2 12 -13
26 -12 15 -21 33 -21 40 0 8 -4 14 -8 14 -5 0 -15 12 -23 28 -8 15 -16 29 -19
32 -10 10 -31 45 -45 78 -9 17 -20 32 -26 32 -5 0 -7 5 -4 10 3 6 1 10 -4 10
-6 0 -11 5 -11 12 0 6 -11 26 -25 43 -13 18 -21 35 -18 39 4 3 2 6 -4 6 -6 0
-16 14 -23 30 -7 17 -17 30 -22 30 -5 0 -6 5 -3 10 3 6 2 10 -4 10 -5 0 -13
10 -17 22 -4 13 -20 40 -37 60 -17 21 -27 41 -24 45 4 3 -1 12 -11 19 -9 7
-17 18 -17 26 -1 7 -7 12 -14 10 -7 -1 -10 2 -6 8 7 11 -13 34 -30 36 -6 1
-18 -6 -27 -15z"/>
<path d="M686 7081 c-4 -6 -12 -8 -18 -5 -7 4 -8 2 -4 -4 3 -6 -4 -20 -16 -31
-12 -12 -18 -21 -12 -21 5 0 1 -5 -9 -11 -9 -6 -15 -14 -12 -20 4 -5 2 -9 -3
-9 -5 0 -26 -26 -48 -57 -21 -32 -43 -61 -49 -65 -5 -4 -6 -8 -2 -8 4 0 -3
-15 -17 -33 -15 -19 -26 -39 -26 -45 0 -6 -8 -16 -17 -21 -10 -6 -15 -11 -11
-11 4 0 -5 -21 -20 -47 -16 -27 -35 -63 -43 -80 -7 -18 -18 -33 -22 -33 -5 0
-6 -4 -3 -9 4 -5 1 -11 -5 -13 -6 -2 -2 -14 10 -27 12 -13 21 -21 21 -16 0 4
7 2 15 -5 8 -7 15 -9 15 -4 0 5 4 4 8 -1 4 -6 39 -26 77 -45 39 -19 73 -38 76
-43 3 -5 9 -8 13 -7 12 3 66 -25 66 -33 0 -5 5 -5 10 -2 6 3 10 1 10 -4 0 -6
3 -10 8 -9 4 1 17 -3 28 -10 12 -6 24 -8 28 -5 3 3 6 2 6 -3 0 -6 16 -16 35
-24 19 -8 35 -18 35 -23 0 -5 7 -6 15 -3 9 3 18 -1 21 -9 4 -8 14 -15 23 -15
9 0 25 -7 35 -15 10 -8 23 -12 27 -9 5 3 9 0 9 -5 0 -6 7 -11 15 -11 8 0 15
-4 15 -10 0 -5 7 -10 16 -10 9 0 29 -9 45 -21 16 -11 29 -17 29 -13 0 3 7 1
15 -6 8 -7 15 -9 15 -4 0 4 6 0 13 -11 8 -10 19 -15 25 -11 7 4 12 2 12 -3 0
-6 7 -11 16 -11 9 0 12 -5 8 -12 -4 -7 -4 -10 1 -6 4 4 15 2 23 -5 13 -10 15
-9 8 3 -4 9 -2 8 7 -2 8 -10 17 -15 20 -11 4 3 7 1 7 -5 0 -7 3 -12 8 -11 15
2 52 -14 52 -22 0 -5 9 -9 20 -9 11 0 20 -4 20 -9 0 -8 21 -17 59 -26 8 -2 17
-8 20 -14 4 -5 18 -12 32 -14 20 -4 25 -1 26 16 1 11 6 23 11 26 10 6 42 65
43 78 0 5 7 12 15 16 8 4 14 15 14 22 0 8 5 15 11 15 5 0 8 4 5 9 -3 5 1 11 9
15 8 3 15 10 15 16 0 6 6 18 13 25 28 32 37 45 37 52 0 12 -46 53 -59 53 -7 0
-9 5 -6 10 3 6 0 10 -7 10 -8 0 -20 9 -28 20 -8 11 -20 20 -27 20 -6 0 -15 9
-18 20 -4 11 -10 18 -14 16 -3 -3 -22 9 -40 25 -19 16 -38 29 -42 29 -5 0 -9
6 -9 13 0 6 -16 22 -35 35 -19 12 -35 27 -35 32 0 6 -7 10 -15 10 -8 0 -15 5
-15 10 0 6 -7 10 -16 10 -8 0 -12 5 -9 10 3 6 2 10 -3 10 -9 0 -34 20 -99 80
-13 11 -23 18 -23 16 0 -5 -28 20 -115 101 -25 22 -45 39 -45 37 0 -2 -9 4
-19 14 -57 52 -80 70 -85 64 -3 -3 -6 2 -6 11 0 10 -4 17 -10 17 -11 0 -43 24
-75 58 -12 12 -25 22 -29 22 -14 0 -35 28 -28 35 4 5 2 5 -5 1 -6 -3 -16 1
-21 10 -6 12 -11 13 -16 5z"/>
<path d="M236 6294 c-3 -9 -4 -20 0 -25 3 -5 0 -9 -7 -9 -7 0 -10 -3 -7 -6 4
-3 0 -17 -7 -31 -8 -15 -12 -30 -9 -35 3 -4 1 -8 -4 -8 -5 0 -9 -6 -10 -12 -1
-13 -9 -48 -12 -58 -1 -3 -2 -8 -1 -12 0 -5 -3 -8 -8 -8 -6 0 -8 -9 -6 -20 2
-11 0 -20 -6 -20 -5 0 -8 -3 -8 -7 4 -25 -2 -63 -9 -59 -5 3 -8 -11 -7 -30 1
-18 -1 -34 -4 -34 -4 0 -7 -8 -7 -17 -1 -10 -4 -31 -9 -48 -4 -16 -7 -41 -8
-55 0 -14 -5 -28 -11 -32 -7 -6 -6 -11 4 -18 8 -5 10 -10 5 -10 -6 0 -12 -14
-13 -31 -3 -37 7 -57 19 -38 5 8 9 10 9 4 0 -5 15 -10 32 -9 18 1 36 -4 40
-10 5 -7 8 -6 8 4 0 13 2 13 9 1 6 -10 27 -14 63 -14 29 1 57 -2 63 -6 5 -4
17 -7 25 -6 8 1 27 -2 43 -6 18 -5 27 -4 27 4 0 6 7 2 16 -9 8 -10 12 -13 8
-5 -5 10 -1 11 15 6 23 -7 54 -12 135 -20 27 -3 53 -8 58 -11 5 -3 15 0 23 6
12 10 16 9 20 -2 3 -8 19 -13 38 -13 17 0 37 -2 42 -4 6 -3 19 -6 30 -7 62 -6
75 -9 75 -19 0 -6 3 -7 8 0 8 11 34 13 42 4 3 -4 30 -9 60 -12 30 -3 78 -9
105 -12 28 -4 64 -8 80 -10 17 -2 30 -4 30 -5 0 -1 8 -3 18 -5 9 -2 17 2 17 8
0 7 4 6 10 -3 23 -36 69 -2 65 48 -1 12 1 22 4 22 4 0 8 10 9 23 0 12 4 36 7
52 3 17 7 36 7 43 1 6 4 12 7 12 4 0 8 12 9 26 1 15 7 33 13 40 6 8 8 14 4 14
-4 0 -2 7 5 15 6 8 9 23 5 36 -6 17 -9 19 -16 8 -7 -11 -9 -10 -9 5 0 13 -5
16 -17 12 -9 -4 -19 -2 -23 4 -4 6 -13 13 -21 14 -22 5 -51 16 -101 41 -27 12
-45 19 -42 14 3 -5 0 -9 -5 -9 -6 0 -11 5 -11 11 0 6 -7 8 -16 5 -8 -3 -12 -2
-9 4 3 6 -3 10 -14 10 -12 0 -21 4 -21 8 0 4 -12 9 -27 10 -15 1 -30 7 -34 13
-4 7 -12 8 -19 4 -9 -5 -11 -4 -6 3 4 8 0 12 -11 12 -10 0 -29 8 -42 17 -14 9
-21 11 -17 5 5 -8 2 -10 -8 -6 -9 3 -16 10 -16 16 0 5 -4 7 -9 3 -6 -3 -25 3
-43 13 -18 10 -52 24 -75 30 -24 7 -43 17 -43 22 0 6 -3 9 -7 9 -25 -4 -53 2
-48 10 3 6 -4 8 -15 6 -11 -2 -25 2 -32 9 -7 7 -18 11 -25 9 -6 -2 -14 1 -18
6 -3 6 -13 11 -22 11 -9 0 -24 6 -32 13 -9 8 -36 19 -61 26 -25 7 -54 20 -64
29 -11 10 -16 11 -12 5 5 -9 2 -11 -8 -7 -9 3 -16 10 -16 16 0 5 -4 7 -9 4 -4
-3 -26 3 -47 13 -21 11 -42 17 -46 14 -5 -2 -8 1 -8 6 0 17 -27 13 -34 -5z"/>
<path d="M90 5431 c0 -7 -6 -11 -14 -8 -12 5 -14 -21 -12 -156 1 -89 5 -168
10 -176 6 -10 5 -12 -2 -7 -13 8 -16 -6 -5 -18 4 -4 8 -19 9 -34 1 -15 2 -27
3 -27 1 0 4 -34 7 -75 3 -41 9 -80 14 -86 6 -6 5 -15 -2 -22 -9 -9 -9 -12 0
-12 7 0 11 -6 10 -12 -2 -9 10 -13 35 -13 20 -1 37 3 37 8 0 4 4 5 10 2 5 -3
19 -1 31 6 16 8 20 8 14 -1 -6 -9 -2 -9 15 0 12 6 28 9 36 6 9 -3 12 -1 9 4
-4 7 3 9 19 6 19 -3 26 0 27 12 0 9 3 12 5 5 6 -13 62 -7 83 10 12 10 13 9 6
-2 -6 -11 -5 -12 6 -5 17 10 20 11 60 13 16 0 28 4 26 9 -3 4 9 8 26 8 61 3
99 8 103 16 3 5 10 6 15 2 5 -3 15 -2 22 3 7 6 27 9 45 8 17 0 32 3 32 8 0 5
9 7 20 4 11 -3 20 -2 20 3 0 4 10 7 23 6 12 -1 24 1 27 5 8 11 74 14 89 5 9
-6 12 -5 8 1 -8 13 10 21 41 18 12 -1 22 2 22 6 0 4 8 6 18 4 9 -1 22 0 27 4
21 12 46 11 39 -1 -4 -7 1 -6 12 3 10 9 29 15 41 14 12 -1 25 5 28 13 4 10 9
11 18 4 8 -7 18 -7 27 -2 8 5 18 6 22 4 4 -3 8 1 8 8 0 9 3 9 10 -2 6 -10 10
-11 10 -3 0 7 3 12 8 12 28 -5 40 3 38 24 -1 13 -5 28 -9 34 -4 6 -2 15 3 18
8 5 6 13 -5 25 -10 11 -12 20 -6 24 5 4 6 17 2 34 -5 15 -7 39 -5 54 1 15 -2
31 -8 34 -7 4 -6 9 3 14 10 7 10 12 1 23 -7 7 -9 16 -7 19 11 11 14 48 4 48
-6 0 -8 4 -5 8 3 5 -18 8 -47 7 -29 -1 -62 1 -73 6 -12 4 -25 5 -28 1 -11 -10
-36 -11 -36 -1 0 11 -23 7 -32 -6 -5 -6 -8 -6 -8 2 0 7 -9 10 -22 8 -12 -3
-28 1 -37 8 -12 10 -13 9 -7 -1 6 -9 -2 -11 -34 -7 -23 3 -46 8 -51 11 -5 3
-9 0 -9 -7 0 -7 -5 -8 -12 -3 -7 5 -39 9 -70 9 -32 -1 -58 3 -58 8 0 5 -7 4
-15 -3 -12 -10 -15 -10 -15 1 0 9 -3 10 -8 4 -10 -14 -32 -17 -32 -4 0 8 -4 9
-13 0 -8 -6 -17 -8 -21 -4 -11 11 -46 10 -46 -1 0 -8 -2 -8 -8 0 -4 6 -29 11
-57 11 -118 1 -191 7 -204 17 -11 8 -13 8 -7 -1 4 -7 3 -13 -3 -13 -5 0 -13 5
-16 10 -4 7 -13 6 -27 -1 -16 -8 -22 -8 -29 2 -6 10 -10 10 -23 0 -9 -8 -16
-9 -16 -4 0 5 -28 9 -62 8 -35 0 -66 5 -70 10 -5 6 -8 5 -8 -4z"/>
<path d="M4477 5363 c-5 -7 -6 -13 -2 -13 3 0 0 -10 -7 -22 -7 -13 -13 -26
-14 -30 -1 -5 -3 -11 -4 -15 -1 -5 -2 -11 -1 -15 0 -5 -4 -8 -10 -8 -5 0 -8
-4 -4 -9 3 -5 1 -12 -5 -16 -5 -3 -10 -15 -10 -26 0 -13 -4 -18 -12 -13 -6 4
-8 3 -4 -4 3 -6 2 -21 -3 -34 -5 -12 -9 -26 -10 -30 -1 -5 -10 -23 -20 -40
-10 -18 -17 -41 -15 -51 1 -9 -2 -15 -7 -11 -5 3 -10 0 -10 -5 -2 -14 -6 -29
-9 -36 -1 -3 -3 -8 -5 -12 -1 -5 -8 -21 -15 -38 -7 -16 -14 -36 -16 -44 -1 -7
-7 -18 -13 -24 -6 -6 -11 -22 -11 -35 0 -13 -4 -20 -10 -17 -6 3 -7 -1 -4 -9
4 -9 1 -16 -6 -16 -7 0 -10 -8 -8 -18 3 -12 -2 -24 -13 -31 -11 -6 -19 -18
-19 -27 0 -16 -84 -189 -102 -211 -6 -7 -7 -13 -2 -13 5 0 3 -4 -5 -9 -8 -5
-16 -17 -17 -26 -1 -10 -12 -26 -23 -36 -11 -10 -28 -32 -37 -49 -10 -16 -22
-30 -26 -30 -4 0 -8 -5 -8 -10 0 -6 -14 -24 -30 -40 -17 -17 -29 -30 -27 -30
3 0 -14 -19 -37 -42 -22 -24 -44 -42 -48 -41 -4 2 -10 -6 -13 -17 -4 -11 -12
-20 -18 -20 -7 0 -25 -14 -40 -31 -15 -17 -27 -28 -27 -25 0 3 -8 -2 -18 -11
-36 -35 -72 -63 -72 -56 0 3 -9 -4 -19 -16 -11 -12 -22 -21 -25 -19 -3 2 -14
-5 -26 -14 -11 -10 -20 -15 -20 -11 0 3 -9 -2 -20 -12 -11 -10 -20 -15 -20
-11 0 4 -7 0 -16 -8 -8 -9 -20 -14 -25 -11 -5 4 -9 1 -9 -5 0 -6 -4 -9 -9 -5
-6 3 -14 -3 -20 -12 -6 -10 -11 -14 -11 -9 0 5 -7 3 -15 -4 -8 -7 -15 -9 -15
-5 0 4 -7 2 -15 -5 -8 -6 -20 -8 -26 -4 -8 5 -9 3 -4 -6 6 -10 3 -12 -13 -8
-13 4 -20 1 -19 -5 2 -11 -4 -13 -42 -16 -11 0 -26 -7 -33 -14 -7 -7 -25 -12
-40 -12 -16 1 -28 -3 -28 -7 0 -4 -9 -8 -21 -8 -11 0 -30 -5 -41 -11 -16 -8
-19 -8 -13 1 6 9 2 9 -15 0 -12 -6 -28 -9 -36 -6 -8 3 -14 1 -14 -4 0 -5 -9
-7 -20 -5 -11 2 -20 -2 -20 -8 0 -8 -3 -8 -9 2 -5 8 -11 9 -15 3 -3 -5 -17 -8
-31 -7 -14 2 -25 -1 -25 -6 0 -5 -5 -9 -11 -9 -5 0 -8 3 -5 8 2 4 -15 7 -40 7
-24 0 -44 -4 -44 -10 0 -5 -5 -3 -10 5 -7 11 -10 11 -10 2 0 -7 -4 -11 -9 -8
-13 9 -16 -18 -16 -156 1 -82 -3 -128 -10 -128 -6 0 -7 -3 0 -8 15 -11 19 -46
4 -36 -8 5 -9 3 -3 -7 12 -20 14 -39 3 -39 -6 0 -6 -8 -2 -17 10 -22 10 -54 0
-71 -5 -6 -4 -12 0 -12 5 0 9 -9 9 -20 0 -11 -4 -20 -7 -20 -4 0 -4 -13 1 -30
5 -16 5 -30 1 -30 -6 0 -7 -55 -1 -70 1 -3 1 -9 0 -15 -7 -35 -7 -76 1 -81 5
-3 5 -13 1 -22 -5 -9 -8 -110 -8 -224 1 -115 -2 -208 -5 -208 -3 0 -3 -17 0
-37 l6 -38 75 -1 c41 0 81 4 88 9 8 6 12 5 12 -4 0 -11 2 -11 10 1 8 12 10 12
10 1 0 -11 3 -11 15 -1 12 10 15 10 15 -1 0 -9 3 -10 8 -3 4 6 28 10 55 10 26
-1 47 3 47 8 0 5 3 6 7 3 3 -4 13 -1 21 6 13 9 14 9 8 0 -9 -16 -1 -16 25 -3
14 8 19 7 19 -2 0 -8 3 -9 8 -3 4 6 12 11 18 12 30 5 130 20 157 22 5 1 6 4 4
9 -3 4 12 7 34 6 21 0 39 4 39 9 0 6 3 8 6 4 4 -3 21 0 39 8 19 7 36 11 39 8
3 -3 11 -1 18 4 7 6 24 9 36 8 13 -1 26 4 29 12 3 7 8 11 12 8 4 -2 19 2 32 9
14 7 33 12 42 10 9 -1 17 2 17 7 0 6 4 8 9 5 5 -3 14 0 20 8 6 7 22 12 36 10
14 -1 23 2 19 7 -3 5 1 9 8 9 8 0 31 9 52 20 22 10 43 17 47 14 5 -3 9 0 9 6
0 7 7 9 16 6 8 -3 13 -2 11 2 -2 4 24 21 59 38 35 17 60 26 57 20 -3 -6 4 -1
16 12 12 12 26 20 31 17 4 -3 11 2 14 11 3 9 11 14 18 12 6 -2 19 3 28 11 15
15 61 42 85 51 6 2 19 12 29 22 11 10 25 18 32 18 7 0 17 6 21 13 4 7 27 25
51 40 24 15 50 37 59 47 9 10 20 17 24 14 5 -3 11 5 14 18 9 37 1 2314 -8
2301z"/>
<path d="M9295 5200 c-3 -5 -4 -10 0 -10 3 0 1 -10 -6 -21 -7 -15 -8 -19 0
-15 7 5 9 -2 6 -21 -3 -15 -7 -48 -8 -73 -1 -25 -6 -51 -10 -57 -5 -8 -3 -13
5 -13 8 0 9 -3 3 -8 -5 -4 -11 -18 -13 -32 -3 -31 -9 -63 -12 -70 -1 -3 -1
-15 0 -27 1 -13 -3 -23 -8 -23 -6 0 -9 -8 -7 -17 1 -10 -1 -22 -5 -28 -8 -10
-20 -63 -23 -97 -1 -9 -5 -14 -9 -12 -4 3 -8 2 -9 -3 0 -4 -2 -16 -5 -25 -2
-10 -5 -25 -7 -34 -2 -8 -8 -19 -14 -22 -5 -4 -9 -15 -7 -24 1 -10 -1 -18 -6
-18 -6 0 -21 -36 -19 -49 0 -2 -3 -7 -8 -10 -4 -3 -19 -29 -32 -58 -13 -29
-28 -50 -32 -47 -5 3 -6 -1 -4 -8 3 -8 -3 -23 -14 -35 -11 -11 -17 -24 -14
-27 4 -3 1 -6 -6 -6 -7 0 -9 -4 -6 -10 3 -5 2 -10 -2 -10 -5 0 -17 -15 -28
-32 -10 -18 -25 -39 -32 -46 -7 -7 -13 -21 -13 -29 0 -9 -3 -13 -7 -10 -7 8
-39 -34 -35 -45 1 -5 -6 -8 -15 -8 -9 0 -14 -3 -10 -6 9 -9 -25 -44 -36 -37
-6 3 -7 1 -4 -4 4 -6 -9 -26 -27 -44 -19 -18 -32 -37 -29 -43 3 -5 1 -6 -6 -2
-6 4 -14 0 -17 -8 -3 -9 -10 -13 -15 -10 -5 3 -9 1 -9 -5 0 -14 -48 -60 -55
-53 -3 3 -8 -4 -12 -16 -3 -12 -9 -19 -14 -17 -4 3 -12 -3 -18 -12 -6 -10 -11
-14 -11 -10 0 4 -11 -3 -24 -17 -13 -15 -28 -26 -35 -26 -6 0 -11 -5 -11 -11
0 -5 -4 -8 -9 -4 -5 3 -12 -4 -16 -15 -4 -11 -11 -18 -16 -15 -5 4 -9 1 -9 -4
0 -6 -7 -11 -15 -11 -8 0 -15 -4 -15 -10 0 -5 -9 -10 -20 -10 -11 0 -20 -7
-20 -16 0 -9 -5 -13 -12 -9 -7 4 -6 1 2 -7 8 -7 16 -20 18 -28 2 -8 9 -18 15
-22 7 -4 8 -8 4 -8 -5 0 -1 -7 7 -16 9 -8 16 -21 16 -28 0 -8 7 -19 15 -26 8
-7 12 -16 9 -21 -3 -5 0 -9 6 -9 6 0 16 -13 21 -30 6 -16 15 -30 20 -30 5 0 9
-7 9 -16 0 -8 4 -13 8 -10 4 2 9 -5 9 -16 1 -12 6 -24 10 -27 4 -3 14 -18 22
-33 8 -16 18 -28 23 -28 5 0 6 -4 3 -10 -3 -5 -1 -10 4 -10 6 0 11 -5 11 -11
0 -6 9 -22 20 -36 11 -14 17 -29 14 -34 -3 -5 -1 -9 4 -9 4 0 19 -19 32 -42
21 -38 24 -40 37 -23 7 11 13 16 13 12 0 -5 6 -3 13 3 6 6 44 33 84 59 40 27
69 51 66 55 -4 3 -1 6 5 6 11 0 19 6 74 53 12 9 25 17 30 17 4 0 8 7 8 15 0 8
3 14 8 13 4 -2 16 6 28 17 11 11 48 46 82 78 34 31 58 57 54 57 -4 1 4 7 18
15 14 8 22 14 18 15 -3 0 9 16 28 35 19 20 34 40 34 46 0 5 4 8 9 4 5 -3 12 4
16 15 3 11 11 20 17 20 6 0 9 3 6 6 -3 3 4 15 16 28 34 37 56 66 49 66 -4 0 2
6 13 14 10 8 19 18 19 23 0 8 6 17 45 62 8 10 16 24 18 32 2 7 9 17 15 21 7 4
8 8 2 8 -5 0 -3 6 5 13 8 7 23 29 32 50 10 20 21 37 26 37 4 0 8 10 9 22 1 11
6 24 11 27 5 3 22 33 37 66 16 33 32 62 37 63 4 2 6 8 3 12 -3 5 4 25 15 44
11 20 17 36 14 36 -4 0 -1 6 5 13 6 8 8 17 4 20 -3 4 -1 7 6 7 7 0 9 5 6 10
-3 6 -2 10 4 10 5 0 8 9 6 20 -2 12 2 23 10 27 8 3 12 9 9 14 -3 5 -2 15 3 22
4 6 9 21 10 31 2 11 9 26 16 35 10 12 9 13 -3 6 -12 -7 -13 -6 -4 6 10 13 28
69 39 127 3 12 8 32 11 45 3 12 7 38 9 57 1 19 5 43 9 53 14 40 15 47 3 47 -9
0 -9 2 0 8 7 4 14 32 16 63 2 30 7 61 12 68 5 10 4 12 -3 7 -7 -4 -12 -2 -12
3 0 6 5 11 10 11 7 0 7 6 0 20 -6 11 -7 20 -3 20 4 0 8 13 9 30 1 19 -3 27
-10 23 -8 -4 -8 -3 0 6 14 16 6 63 -10 54 -18 -12 -36 -12 -36 0 0 6 -6 3 -13
-7 -13 -17 -14 -18 -20 -2 -4 11 -12 14 -19 9 -18 -11 -78 -11 -78 -1 0 5 -5
6 -12 2 -17 -11 -58 -11 -65 -1 -2 4 -11 3 -19 -4 -8 -6 -14 -8 -14 -4 0 4 -6
2 -14 -4 -11 -9 -15 -8 -20 5 -4 11 -10 13 -19 7 -14 -11 -27 -11 -44 0 -8 5
-13 4 -13 -2 0 -6 -7 -8 -15 -5 -9 4 -15 0 -15 -7 -1 -9 -4 -8 -11 4 -8 13
-14 15 -29 7 -13 -7 -21 -7 -25 0 -4 6 -12 7 -18 3 -18 -11 -60 -12 -79 -2
-10 6 -19 5 -23 -1z"/>
<path d="M1328 4869 c-16 -4 -28 -5 -28 -2 0 3 -7 0 -15 -7 -8 -6 -19 -9 -25
-5 -5 3 -10 1 -10 -5 0 -6 -4 -8 -10 -5 -5 3 -10 1 -10 -5 0 -6 -4 -9 -9 -6
-5 4 -22 1 -38 -5 -38 -15 -72 -22 -105 -23 -20 -1 -24 -4 -16 -14 8 -9 7 -11
-6 -6 -9 3 -23 1 -30 -5 -11 -9 -15 -9 -19 1 -4 10 -6 10 -6 1 -1 -7 -11 -13
-24 -13 -13 0 -28 -5 -35 -12 -7 -7 -12 -9 -12 -5 0 3 -18 0 -39 -8 -22 -7
-42 -11 -45 -8 -3 4 -6 1 -6 -5 0 -6 -6 -9 -14 -6 -8 3 -17 1 -20 -5 -4 -6
-13 -8 -21 -4 -8 3 -15 0 -15 -5 0 -6 -9 -9 -19 -7 -11 2 -22 -2 -24 -9 -3 -7
-16 -12 -29 -11 -12 1 -29 -2 -35 -8 -7 -5 -13 -7 -13 -3 0 3 -12 1 -27 -5
-16 -6 -41 -13 -58 -16 -16 -3 -35 -9 -40 -13 -6 -5 -22 -10 -35 -12 -14 -2
-31 -7 -37 -11 -7 -5 -17 -6 -22 -2 -5 3 -13 0 -16 -6 -4 -5 -13 -8 -21 -5 -8
3 -14 0 -14 -5 0 -6 -9 -9 -20 -6 -10 3 -20 1 -22 -4 -2 -5 -15 -10 -30 -11
-16 -1 -28 -7 -28 -12 0 -5 -3 -7 -6 -3 -3 3 -24 -1 -46 -9 -22 -7 -44 -12
-48 -9 -14 8 -19 -35 -6 -48 7 -6 11 -20 8 -31 -3 -13 -1 -17 6 -12 8 4 10 2
6 -8 -3 -8 -2 -21 2 -28 5 -7 9 -17 10 -23 6 -28 78 -214 104 -266 16 -33 29
-62 30 -64 0 -3 0 -10 0 -16 0 -5 4 -7 10 -4 6 3 7 -1 4 -9 -3 -9 -2 -16 4
-16 9 0 25 -37 23 -52 -1 -5 4 -8 10 -8 5 0 8 -4 5 -9 -3 -5 1 -12 10 -15 22
-9 24 -8 24 10 0 8 4 12 10 9 10 -6 59 21 72 40 4 5 8 6 8 2 0 -5 13 1 29 12
16 12 34 21 39 21 6 0 17 6 24 13 7 6 27 19 43 27 17 8 36 22 43 30 12 13 13
13 6 0 -4 -9 2 -7 17 6 25 22 58 38 72 36 4 -1 7 3 7 8 0 6 7 10 15 10 8 0 15
5 15 11 0 6 7 8 16 5 8 -3 13 -2 10 3 -3 5 12 16 34 25 22 9 40 21 40 27 0 5
4 8 9 4 5 -3 17 2 25 11 9 9 23 13 31 10 8 -3 14 -1 12 5 -1 5 21 22 48 37 28
15 53 32 57 37 5 7 8 7 8 0 0 -5 7 -1 15 9 8 11 15 16 15 12 0 -4 15 3 33 16
17 13 32 21 32 19 0 -2 18 7 40 20 22 13 43 23 48 21 4 -1 7 2 7 8 0 6 7 10
15 10 8 0 15 5 15 11 0 6 7 8 16 5 8 -3 12 -2 9 4 -3 6 3 10 15 10 12 0 18 4
15 10 -3 5 6 12 20 16 13 3 23 10 20 14 -3 5 3 7 12 6 22 -4 53 36 35 42 -7 2
-12 12 -12 23 0 10 -4 19 -10 19 -5 0 -10 6 -10 14 0 7 -7 26 -14 42 -8 15
-12 32 -9 37 3 6 1 7 -5 3 -7 -4 -13 -1 -13 8 -2 24 -4 30 -11 41 -6 9 -31 92
-32 107 -2 13 -12 15 -38 7z"/>
<path d="M1540 4421 c0 -3 -18 -17 -40 -31 -22 -14 -40 -28 -40 -32 0 -5 -7
-8 -15 -8 -7 0 -19 -8 -24 -17 -6 -10 -11 -14 -11 -10 0 5 -7 1 -16 -7 -8 -9
-20 -13 -26 -10 -6 4 -8 2 -5 -3 7 -10 -20 -28 -35 -25 -5 1 -8 -2 -8 -7 0 -5
-20 -22 -45 -38 -25 -15 -45 -32 -45 -36 0 -5 -4 -5 -10 -2 -5 3 -10 2 -10 -2
0 -5 -16 -17 -35 -27 -19 -10 -32 -23 -28 -29 3 -6 1 -7 -4 -4 -6 4 -31 -9
-57 -29 -25 -19 -46 -32 -46 -29 0 3 -6 0 -14 -7 -8 -7 -13 -15 -11 -18 2 -3
-14 -14 -36 -24 -21 -11 -39 -23 -39 -28 0 -5 -4 -7 -9 -4 -5 3 -12 -1 -15
-10 -3 -8 -10 -13 -15 -10 -5 3 -12 -1 -15 -10 -3 -8 -10 -13 -15 -10 -5 3
-12 -1 -15 -10 -3 -8 -10 -13 -14 -10 -5 3 -15 -4 -22 -15 -8 -10 -20 -19 -26
-19 -6 0 -17 -7 -24 -15 -7 -8 -16 -12 -21 -9 -5 3 -9 -2 -9 -10 0 -9 -6 -16
-13 -16 -8 0 -22 -9 -32 -20 -10 -11 -22 -17 -26 -14 -5 3 -9 0 -9 -6 0 -7 -7
-10 -15 -6 -8 3 -14 2 -14 -2 4 -22 -3 -31 -18 -25 -11 4 -14 3 -9 -5 4 -7 2
-12 -6 -12 -39 -1 -72 -67 -40 -78 7 -2 12 -10 12 -18 0 -8 5 -14 10 -14 6 0
10 -5 10 -11 0 -5 13 -24 30 -42 16 -18 30 -38 30 -45 0 -7 7 -15 15 -18 8 -4
12 -10 9 -15 -3 -5 2 -9 10 -9 9 0 16 -7 16 -15 0 -8 5 -15 11 -15 5 0 8 -4 4
-9 -3 -5 4 -12 15 -16 11 -3 19 -10 17 -14 -4 -15 168 -192 179 -183 4 4 4 -2
0 -13 -4 -11 -4 -16 0 -12 4 4 13 2 21 -4 8 -8 13 -8 13 -1 0 6 19 30 43 53
23 24 41 47 40 51 -2 4 6 10 17 13 11 4 20 12 20 18 0 7 15 26 33 43 17 17 47
49 66 72 19 23 38 39 43 36 5 -3 8 -2 7 3 -4 15 13 43 22 37 5 -3 9 -1 9 4 0
9 17 30 98 119 23 26 42 50 42 55 0 4 7 8 15 8 9 0 19 8 22 18 4 9 14 22 22
29 9 7 13 13 10 13 -4 0 22 29 58 65 35 36 62 65 59 65 -3 0 17 23 44 50 27
28 48 50 46 50 -2 0 18 23 45 51 27 28 49 55 49 61 0 5 5 6 10 3 24 -15 1 21
-42 67 -27 27 -48 54 -48 59 0 6 -4 8 -9 5 -5 -3 -14 8 -21 24 -7 17 -19 30
-26 30 -8 0 -14 7 -14 15 0 8 -5 15 -12 15 -6 0 -8 3 -5 6 4 4 -3 15 -14 25
-11 9 -19 21 -17 25 2 4 -5 8 -14 10 -10 1 -18 -1 -18 -5z"/>
<path d="M1883 4063 c4 -3 -5 -17 -19 -30 -14 -12 -21 -23 -17 -23 4 0 -1 -7
-11 -15 -11 -8 -17 -15 -13 -15 4 0 -6 -13 -23 -30 -17 -16 -28 -30 -24 -30 4
0 -3 -8 -14 -19 -12 -10 -19 -21 -15 -24 3 -4 -2 -9 -11 -13 -9 -3 -13 -10
-10 -15 3 -5 0 -9 -6 -9 -6 0 -8 -4 -5 -10 3 -5 -1 -10 -9 -10 -9 0 -16 -6
-16 -14 0 -8 -7 -16 -15 -20 -8 -3 -15 -12 -15 -20 0 -7 -7 -17 -16 -20 -8 -3
-13 -10 -10 -14 3 -5 -3 -15 -12 -24 -9 -8 -24 -25 -32 -38 -8 -12 -24 -31
-34 -41 -11 -11 -16 -19 -12 -19 4 0 -5 -12 -19 -26 -14 -14 -22 -30 -19 -36
4 -6 3 -8 -3 -5 -5 3 -17 -7 -27 -24 -9 -16 -22 -29 -27 -29 -6 0 -8 -4 -4 -9
3 -6 0 -13 -7 -18 -7 -4 -24 -25 -38 -45 -13 -20 -29 -34 -34 -31 -5 3 -6 1
-3 -5 4 -5 -9 -26 -28 -46 -19 -20 -31 -36 -25 -36 5 0 -7 -16 -26 -37 -19
-20 -32 -38 -30 -40 6 -7 -38 -48 -47 -45 -5 1 -6 -2 -3 -7 4 -5 -1 -16 -9
-24 -8 -9 -15 -18 -15 -22 0 -3 -11 -18 -25 -33 -25 -26 -34 -49 -16 -37 6 3
14 -3 20 -12 6 -10 11 -14 11 -9 0 4 9 -2 21 -15 11 -13 17 -17 13 -9 -4 8 4
3 19 -12 14 -16 33 -28 42 -28 9 0 13 -4 10 -10 -6 -9 8 -14 28 -11 4 0 7 -6
7 -14 0 -8 3 -14 8 -13 12 2 42 -14 38 -21 -3 -4 5 -8 17 -8 11 -1 25 -9 29
-18 5 -8 13 -13 19 -10 5 4 9 1 9 -4 0 -6 7 -11 16 -11 9 0 12 -5 8 -12 -4 -7
-4 -10 1 -6 4 4 20 1 36 -8 16 -8 30 -13 32 -12 1 2 13 -7 26 -19 13 -12 28
-20 33 -17 4 3 8 1 8 -4 0 -8 11 -14 55 -27 6 -2 17 -6 26 -10 16 -6 30 16 33
52 1 7 7 18 14 25 6 6 12 20 12 30 0 10 5 18 10 18 6 0 10 9 10 20 0 11 4 20
10 20 5 0 6 7 3 17 -5 12 -3 14 7 8 10 -6 12 -3 8 13 -4 12 -2 22 3 22 5 0 9
7 9 15 0 8 5 15 11 15 5 0 8 4 5 8 -3 5 6 27 19 50 13 24 20 40 15 37 -5 -3 4
21 20 52 36 72 64 135 64 148 1 6 7 15 15 21 8 6 11 16 7 22 -4 7 -2 12 4 12
6 0 8 5 5 10 -3 6 -1 10 4 10 6 0 10 3 9 8 -1 4 3 17 10 28 6 12 8 24 5 28 -3
3 -2 6 4 6 6 0 14 10 18 23 4 12 8 25 10 30 6 18 7 22 6 30 0 4 3 7 8 7 9 0
27 57 23 73 -2 5 2 6 8 2 9 -6 14 7 11 28 0 4 4 7 10 7 5 0 7 5 4 10 -3 6 -1
10 6 10 7 0 9 3 6 7 -4 3 -2 12 4 20 6 7 8 13 5 13 -4 0 2 14 14 30 12 17 19
30 16 30 -4 0 6 26 22 58 30 60 34 89 14 84 -7 -1 -15 4 -18 12 -3 8 -12 12
-20 9 -8 -3 -14 0 -14 6 0 6 -7 11 -15 11 -8 0 -15 5 -15 11 0 5 -4 8 -8 5 -5
-3 -20 6 -35 20 -15 14 -27 19 -27 13 0 -7 -14 2 -30 20 -17 17 -35 31 -40 31
-6 0 -19 9 -30 20 -11 11 -25 20 -32 20 -6 0 -8 -3 -5 -7z"/>
<path d="M2314 3833 c3 -4 -1 -15 -11 -25 -13 -14 -13 -18 -2 -18 11 0 11 -2
1 -9 -7 -4 -14 -14 -16 -22 -7 -38 -42 -135 -51 -141 -5 -4 -7 -8 -2 -8 4 0 1
-15 -7 -34 -8 -19 -12 -37 -8 -40 3 -3 0 -6 -7 -6 -8 0 -11 -7 -7 -15 3 -8 2
-15 -2 -15 -4 0 -8 -10 -9 -22 -1 -11 -6 -24 -11 -27 -5 -3 -10 -14 -10 -23
-4 -42 -6 -48 -14 -48 -4 0 -7 -3 -6 -7 3 -14 -26 -98 -37 -105 -5 -4 -7 -8
-2 -8 4 0 1 -16 -7 -35 -8 -19 -12 -35 -9 -35 3 0 -1 -8 -10 -18 -10 -10 -15
-21 -12 -24 3 -3 1 -18 -5 -34 -6 -16 -11 -31 -12 -34 0 -3 -4 -11 -10 -17 -6
-7 -8 -13 -5 -13 3 0 0 -15 -8 -34 -8 -18 -11 -36 -8 -40 4 -3 1 -6 -6 -6 -8
0 -11 -7 -7 -15 3 -8 1 -15 -4 -15 -6 0 -9 -3 -9 -7 1 -5 0 -11 -1 -15 -1 -5
-4 -12 -5 -18 -1 -5 -3 -11 -5 -12 -1 -2 -3 -12 -5 -23 -2 -11 -8 -21 -13 -23
-6 -2 -8 -12 -5 -22 3 -11 1 -20 -5 -20 -8 0 -18 -33 -24 -77 -1 -7 -6 -13
-11 -13 -5 0 -7 -6 -4 -14 3 -7 -1 -23 -9 -35 -10 -13 -11 -21 -4 -21 6 0 8
-4 5 -10 -3 -6 1 -7 9 -4 9 3 16 1 16 -5 0 -6 6 -8 14 -5 8 3 17 0 21 -5 3 -6
11 -9 16 -5 5 3 15 2 22 -3 21 -15 86 -35 96 -29 5 4 15 0 23 -7 7 -7 22 -12
33 -12 11 0 25 -4 32 -8 7 -5 17 -6 23 -2 5 3 10 2 10 -2 0 -8 33 -14 88 -16
12 -1 22 -5 22 -9 0 -4 17 -8 38 -8 21 0 44 -6 51 -12 11 -10 13 -10 7 0 -4 6
-2 12 3 12 6 0 11 -6 11 -12 0 -9 4 -8 10 2 8 12 10 12 10 1 0 -11 3 -11 17 0
11 10 14 10 9 2 -5 -9 0 -13 14 -13 12 0 18 5 15 10 -3 6 -2 10 3 10 5 0 9 15
9 33 0 17 3 59 7 92 4 33 8 72 9 87 1 15 5 30 9 34 4 3 3 15 -3 25 -7 13 -6
19 1 19 7 0 7 7 -1 21 -6 12 -7 19 -2 16 9 -6 16 53 16 125 0 15 3 26 6 24 3
-2 6 19 5 47 0 29 2 56 4 61 3 5 7 32 8 60 2 27 6 56 8 62 3 7 0 15 -7 18 -7
2 -3 5 7 5 20 1 20 1 0 17 -10 8 -13 13 -6 9 6 -3 12 0 13 7 0 7 2 36 3 63 1
28 4 55 7 60 3 6 5 34 5 62 -1 29 2 53 6 53 4 0 4 7 1 17 -5 12 -3 14 8 8 12
-7 12 -6 1 7 -7 9 -9 18 -5 21 5 3 8 28 7 56 0 28 2 51 5 51 3 0 6 18 6 40 0
36 -5 45 -27 41 -5 0 -8 3 -8 7 0 4 -10 9 -22 10 -13 1 -39 4 -59 5 -20 2 -41
7 -47 11 -5 3 -22 7 -36 8 -14 1 -26 6 -26 10 0 4 -9 5 -20 3 -11 -2 -20 1
-20 7 0 5 -7 8 -15 5 -8 -4 -17 -2 -20 2 -2 5 -14 11 -26 14 -11 3 -18 3 -15
0z"/>
</g>
</svg>
